<svg xmlns="http://www.w3.org/2000/svg" width="900" height="620" viewBox="0 0 900 620">
<defs>
<linearGradient id="g" x1="0" x2="1" y1="0" y2="1"><stop offset="0" stop-color="#ffffff"/><stop offset="1" stop-color="#eeeeee"/></linearGradient>
<filter id="sh" x="-20%" y="-20%" width="140%" height="140%"><feDropShadow dx="0" dy="18" stdDeviation="20" flood-opacity="0.18"/></filter>
</defs>
<rect width="100%" height="100%" fill="url(#g)"/>
<g filter="url(#sh)"><rect x="180" y="90" width="170" height="360" rx="35" fill="#111"/><rect x="375" y="90" width="170" height="360" rx="35" fill="#24405a"/><rect x="570" y="90" width="170" height="360" rx="35" fill="#ddd"/><g fill="#050505" stroke="#777"><circle cx="220" cy="135" r="20"/><circle cx="265" cy="135" r="20"/><circle cx="242" cy="180" r="20"/></g><g fill="#050505" stroke="#999"><circle cx="415" cy="135" r="20"/><circle cx="460" cy="135" r="20"/><circle cx="438" cy="180" r="20"/></g><g fill="#333" stroke="#aaa"><circle cx="610" cy="135" r="20"/><circle cx="655" cy="135" r="20"/><circle cx="633" cy="180" r="20"/></g><circle cx="265" cy="280" r="55" fill="none" stroke="#444" stroke-width="10"/><circle cx="460" cy="280" r="55" fill="none" stroke="#567" stroke-width="10"/><circle cx="655" cy="280" r="55" fill="none" stroke="#bbb" stroke-width="10"/></g>
</svg>