<svg xmlns="http://www.w3.org/2000/svg" width="900" height="620" viewBox="0 0 900 620">
<defs>
<linearGradient id="g" x1="0" x2="1" y1="0" y2="1"><stop offset="0" stop-color="#ffffff"/><stop offset="1" stop-color="#eeeeee"/></linearGradient>
<filter id="sh" x="-20%" y="-20%" width="140%" height="140%"><feDropShadow dx="0" dy="18" stdDeviation="20" flood-opacity="0.18"/></filter>
</defs>
<rect width="100%" height="100%" fill="url(#g)"/>
<rect x="600" y="0" width="340" height="620" fill="#111" transform="skewX(-18) translate(100,0)" opacity=".98"/>
<g filter="url(#sh)" transform="rotate(-16 330 280)"><rect x="235" y="92" rx="42" ry="42" width="200" height="380" fill="#191919"/><rect x="255" y="120" rx="26" width="75" height="75" fill="#303030"/><circle cx="276" cy="143" r="18" fill="#070707" stroke="#777"/><circle cx="310" cy="145" r="18" fill="#070707" stroke="#777"/><circle cx="293" cy="178" r="18" fill="#070707" stroke="#777"/><circle cx="335" cy="178" r="10" fill="#222" stroke="#888"/><circle cx="335" cy="215" r="68" fill="none" stroke="#555" stroke-width="14" opacity=".8"/><rect x="320" y="285" rx="9" width="28" height="70" fill="#404040" opacity=".9"/></g>
<g filter="url(#sh)" transform="rotate(12 530 180)"><rect x="505" y="70" rx="28" width="105" height="145" fill="#101010"/><rect x="519" y="92" rx="20" width="77" height="100" fill="#222"/><text x="558" y="136" text-anchor="middle" font-family="Arial" font-weight="900" font-size="36" fill="#f5a400">10</text><text x="558" y="171" text-anchor="middle" font-family="Arial" font-weight="900" font-size="36" fill="#fff">09</text></g>
<g filter="url(#sh)"><rect x="480" y="295" rx="28" width="150" height="120" fill="#fff"/><circle cx="525" cy="345" r="32" fill="#f7f7f7" stroke="#ddd"/><circle cx="585" cy="345" r="32" fill="#f7f7f7" stroke="#ddd"/><rect x="526" y="320" width="15" height="80" rx="8" fill="#fff" transform="rotate(-22 534 360)"/><rect x="574" y="320" width="15" height="80" rx="8" fill="#fff" transform="rotate(22 582 360)"/></g>
<g filter="url(#sh)" transform="rotate(-9 690 380)"><path d="M650 180h210c35 0 55 21 55 55v290H610V235c0-34 20-55 40-55z" fill="#282828"/><rect x="650" y="210" width="220" height="270" rx="18" fill="#333"/><rect x="684" y="185" width="105" height="22" rx="11" fill="#111"/><rect x="685" y="332" width="140" height="50" rx="7" fill="#111"/><text x="755" y="364" text-anchor="middle" font-family="Arial" font-weight="900" font-size="22" fill="#fff">GADGET FLIX</text></g>
<g filter="url(#sh)" transform="rotate(-28 435 482)"><rect x="350" y="480" width="230" height="24" rx="12" fill="#111"/><rect x="337" y="462" width="42" height="60" rx="8" fill="#1b1b1b"/><rect x="550" y="462" width="42" height="60" rx="8" fill="#1b1b1b"/><rect x="347" y="450" width="20" height="18" rx="3" fill="#999"/><rect x="562" y="450" width="20" height="18" rx="3" fill="#999"/></g>
</svg>